<?xml version="1.0" encoding="utf-8"?>
<!-- Generator: Adobe Illustrator 15.1.0, SVG Export Plug-In . SVG Version: 6.00 Build 0)  -->
<!DOCTYPE svg PUBLIC "-//W3C//DTD SVG 1.1//EN" "http://www.w3.org/Graphics/SVG/1.1/DTD/svg11.dtd">
<svg version="1.1" id="Layer_1" xmlns="http://www.w3.org/2000/svg" xmlns:xlink="http://www.w3.org/1999/xlink" x="0px" y="0px"
	 width="80px" height="80px" viewBox="0 0 80 80" enable-background="new 0 0 80 80" xml:space="preserve">
<g>
	<g>
		<path fill-rule="evenodd" clip-rule="evenodd" fill="#FFFFFF" d="M9.906,20.12l14.9,14.905l10.135-10.14l-14.9-14.905l9.94-9.936
			L0.083,0l0.039,29.898L9.906,20.12z M70.094,59.881l-14.9-14.901L45.058,55.115l14.901,14.905l-9.94,9.936L79.917,80
			l-0.039-29.898L70.094,59.881z M50.097,0.122l9.784,9.784l-14.901,14.9l10.136,10.135l14.9-14.9l9.94,9.935L80,0.078L50.097,0.122
			z M24.885,45.058l-14.9,14.901l-9.94-9.936L0,79.922l29.903-0.044l-9.784-9.784l14.9-14.9L24.885,45.058z"/>
	</g>
</g>
</svg>
